<svg width="150" height="46" viewBox="0 0 150 46" fill="none" xmlns="http://www.w3.org/2000/svg">
<g clip-path="url(#clip0_81_1821)">
<path fill-rule="evenodd" clip-rule="evenodd" d="M39.1238 23.3671C38.9296 32.5932 31.4353 40.0122 22.2185 40.0122C15.6735 40.0122 9.99698 36.2708 7.18651 30.798L9.67316 29.311L7.22516 27.8472L0.0368035 23.5705L0.036804 25.8826L0.0368035 31.9634L0.0368033 35.0732L2.49044 33.6059C6.25795 40.6848 13.6794 45.5 22.2185 45.5C33.38 45.5 42.6316 37.2736 44.3104 26.5186L39.1238 23.3671ZM5.30953 23C5.30953 23.197 5.31285 23.3931 5.31945 23.5883L0 20.4237C1.2705 9.21054 10.7335 0.5 22.2185 0.5C30.6425 0.5 37.9787 5.18604 41.7922 12.1085L43.3095 11.2012V13.6707V15.4995V22.768L37.2993 19.1161L37.2924 19.1276L33.6731 16.9634L37.0996 14.9145C34.6529 10.3662 30.2064 7.06614 24.9458 6.20794V12.0244H25.5822C29.2475 12.0244 32.2185 15.0137 32.2185 18.7012C32.2185 19.8297 31.9404 20.8929 31.4491 21.8251C33.0229 23.0459 34.0367 24.9617 34.0367 27.1159C34.0367 30.8033 31.0656 33.7927 27.4004 33.7927H24.9458V37.0854C24.4611 37.2074 23.2731 37.4512 22.4004 37.4512C21.5276 37.4512 20.0975 37.2074 19.4913 37.0854V33.7927H11.6732V25.378V20.439V12.0244H19.4913V6.20794C11.4495 7.51991 5.30953 14.5386 5.30953 23ZM25.3095 17.3293H17.1277V20.2561H25.3095C26.1129 20.2561 26.764 19.6009 26.764 18.7927C26.764 17.9845 26.1129 17.3293 25.3095 17.3293ZM17.1277 25.561H27.1276C27.9311 25.561 28.5822 26.2162 28.5822 27.0244C28.5822 27.8326 27.9311 28.4878 27.1276 28.4878H17.1277V25.561Z" fill="#3B75F3"/>
<path d="M56.4249 20.9641C56.5689 20.7929 56.6409 20.5887 56.6409 20.3517C56.6409 20.1146 56.5689 19.9039 56.4249 19.7195C56.294 19.5219 56.0976 19.4231 55.8358 19.4231H54.1864V21.2209H55.8358C56.0976 21.2209 56.294 21.1353 56.4249 20.9641ZM54.1864 24.5202V26.4563H56.0125C56.3136 26.4563 56.5362 26.3575 56.6802 26.16C56.8373 25.9492 56.9158 25.7187 56.9158 25.4685V25.4487C56.9158 25.1985 56.8307 24.9812 56.6605 24.7968C56.5034 24.6124 56.2874 24.5202 56.0125 24.5202H54.1864ZM56.5231 29.8543H49.8075C49.6635 29.8543 49.5391 29.8017 49.4344 29.6963C49.3296 29.5909 49.2773 29.4658 49.2773 29.3209V16.5585C49.2773 16.4136 49.3296 16.2885 49.4344 16.1831C49.5391 16.0778 49.6635 16.0251 49.8075 16.0251H56.3267C58.1856 16.0251 59.5536 16.3675 60.4307 17.0524C61.3209 17.7241 61.766 18.7448 61.766 20.1146V20.1739C61.766 20.7402 61.6024 21.2473 61.2751 21.6951C60.9478 22.1297 60.5878 22.4458 60.1951 22.6434C60.7187 22.8541 61.1573 23.2295 61.5107 23.7695C61.8773 24.2963 62.0605 24.8758 62.0605 25.508C62.0605 28.4056 60.2147 29.8543 56.5231 29.8543ZM68.6556 29.8543H64.6498C64.5058 29.8543 64.3814 29.8017 64.2767 29.6963C64.172 29.5909 64.1196 29.4658 64.1196 29.3209V16.5585C64.1196 16.4136 64.172 16.2885 64.2767 16.1831C64.3814 16.0778 64.5058 16.0251 64.6498 16.0251H68.6556C68.7996 16.0251 68.924 16.0778 69.0287 16.1831C69.1335 16.2885 69.1858 16.4136 69.1858 16.5585V29.3209C69.1858 29.4658 69.1335 29.5909 69.0287 29.6963C68.924 29.8017 68.7996 29.8543 68.6556 29.8543ZM71.5755 16.0251H83.0824C83.2264 16.0251 83.3507 16.0778 83.4554 16.1831C83.5602 16.2885 83.6125 16.4136 83.6125 16.5585V19.7392C83.6125 19.8841 83.5602 20.0092 83.4554 20.1146C83.3507 20.22 83.2264 20.2726 83.0824 20.2726H79.8227V29.3209C79.8227 29.4658 79.7704 29.5909 79.6656 29.6963C79.5609 29.8017 79.4365 29.8543 79.2925 29.8543H75.3653C75.2213 29.8543 75.0969 29.8017 74.9922 29.6963C74.8874 29.5909 74.8351 29.4658 74.8351 29.3209V20.2726H71.5755C71.4315 20.2726 71.3071 20.22 71.2024 20.1146C71.0976 20.0092 71.0453 19.8841 71.0453 19.7392V16.5585C71.0453 16.4136 71.0976 16.2885 71.2024 16.1831C71.3071 16.0778 71.4315 16.0251 71.5755 16.0251ZM86.876 17.2895C88.0804 16.3148 89.6709 15.8275 91.6476 15.8275C93.6244 15.8275 95.2084 16.3214 96.3996 17.3092C97.604 18.2839 98.2062 19.6602 98.2062 21.4382V24.5202C98.2062 26.3246 97.6105 27.7009 96.4193 28.6492C95.2411 29.5843 93.6505 30.0519 91.6476 30.0519C89.6447 30.0519 88.0476 29.5843 86.8564 28.6492C85.6782 27.7009 85.0891 26.3246 85.0891 24.5202V21.4382C85.0891 19.647 85.6847 18.2641 86.876 17.2895ZM90.5873 25.8043C90.8491 26.0678 91.2025 26.1995 91.6476 26.1995C92.0927 26.1995 92.4462 26.0678 92.708 25.8043C92.9698 25.5409 93.1007 25.1392 93.1007 24.5992V21.2802C93.1007 20.7534 92.9698 20.3582 92.708 20.0948C92.4462 19.8182 92.0927 19.68 91.6476 19.68C91.2025 19.68 90.8491 19.8182 90.5873 20.0948C90.3254 20.3582 90.1945 20.7534 90.1945 21.2802V24.5992C90.1945 25.1392 90.3254 25.5409 90.5873 25.8043ZM113.224 29.2024C113.264 29.2682 113.283 29.3539 113.283 29.4592C113.283 29.5514 113.238 29.6436 113.146 29.7358C113.067 29.8148 112.969 29.8543 112.851 29.8543H108.374C107.995 29.8543 107.726 29.7029 107.569 29.4L105.174 25.0931V29.3209C105.174 29.4658 105.121 29.5909 105.016 29.6963C104.912 29.8017 104.787 29.8543 104.643 29.8543H100.893C100.749 29.8543 100.624 29.8017 100.52 29.6963C100.415 29.5909 100.363 29.4658 100.363 29.3209V16.5585C100.363 16.4136 100.415 16.2885 100.52 16.1831C100.624 16.0778 100.749 16.0251 100.893 16.0251H104.643C104.787 16.0251 104.912 16.0778 105.016 16.1831C105.121 16.2885 105.174 16.4136 105.174 16.5585V20.4702L107.392 16.4597C107.536 16.17 107.798 16.0251 108.178 16.0251H112.518C112.635 16.0251 112.734 16.0712 112.812 16.1634C112.904 16.2424 112.95 16.3346 112.95 16.44C112.95 16.5321 112.93 16.6112 112.891 16.677L109.356 22.6434L113.224 29.2024ZM115.196 25.35H118.613C118.757 25.35 118.881 25.4026 118.986 25.508C119.09 25.6134 119.143 25.7385 119.143 25.8834V29.3209C119.143 29.4658 119.09 29.5909 118.986 29.6963C118.881 29.8017 118.757 29.8543 118.613 29.8543H115.196C115.052 29.8543 114.928 29.8017 114.823 29.6963C114.718 29.5909 114.666 29.4658 114.666 29.3209V25.8834C114.666 25.7385 114.718 25.6134 114.823 25.508C114.928 25.4026 115.052 25.35 115.196 25.35ZM134.452 29.2024C134.492 29.2682 134.511 29.3539 134.511 29.4592C134.511 29.5514 134.466 29.6436 134.374 29.7358C134.295 29.8148 134.197 29.8543 134.079 29.8543H129.602C129.223 29.8543 128.954 29.7029 128.797 29.4L126.402 25.0931V29.3209C126.402 29.4658 126.349 29.5909 126.244 29.6963C126.14 29.8017 126.015 29.8543 125.871 29.8543H122.121C121.977 29.8543 121.852 29.8017 121.748 29.6963C121.643 29.5909 121.591 29.4658 121.591 29.3209V16.5585C121.591 16.4136 121.643 16.2885 121.748 16.1831C121.852 16.0778 121.977 16.0251 122.121 16.0251H125.871C126.015 16.0251 126.14 16.0778 126.244 16.1831C126.349 16.2885 126.402 16.4136 126.402 16.5585V20.4702L128.62 16.4597C128.764 16.17 129.026 16.0251 129.406 16.0251H133.746C133.863 16.0251 133.962 16.0712 134.04 16.1634C134.132 16.2424 134.178 16.3346 134.178 16.44C134.178 16.5321 134.158 16.6112 134.119 16.677L130.584 22.6434L134.452 29.2024ZM143.041 21.5173H148.441C148.585 21.5173 148.71 21.57 148.814 21.6753C148.919 21.7807 148.972 21.9058 148.972 22.0507V24.619C148.972 26.3575 148.356 27.7009 147.126 28.6492C145.895 29.5843 144.252 30.0519 142.197 30.0519C140.155 30.0519 138.545 29.5975 137.366 28.6887C136.188 27.7668 135.599 26.3904 135.599 24.5597V21.2407C135.599 19.489 136.201 18.1521 137.406 17.2302C138.61 16.2951 140.214 15.8275 142.217 15.8275C144.233 15.8275 145.862 16.2556 147.106 17.1117C148.35 17.9546 148.972 18.9951 148.972 20.2331C148.972 20.3517 148.926 20.457 148.834 20.5492C148.756 20.6282 148.657 20.6678 148.54 20.6678H144.2C143.938 20.6678 143.748 20.5953 143.63 20.4504C143.369 20.108 143.172 19.9104 143.041 19.8578C142.74 19.7392 142.465 19.68 142.217 19.68C141.209 19.68 140.705 20.1739 140.705 21.1617V24.5202C140.705 25.6397 141.241 26.1995 142.315 26.1995C143.414 26.1995 143.964 25.7253 143.964 24.777H143.041C142.897 24.777 142.773 24.7243 142.668 24.619C142.564 24.5136 142.511 24.3885 142.511 24.2436V22.0507C142.511 21.9058 142.564 21.7807 142.668 21.6753C142.773 21.57 142.897 21.5173 143.041 21.5173Z" fill="#131313"/>
</g>
<defs>
<clipPath id="clip0_81_1821">
<rect width="150" height="45" fill="white" transform="translate(0 0.5)"/>
</clipPath>
</defs>
</svg>
