<svg width="12" height="13" viewBox="0 0 12 13" fill="none" xmlns="http://www.w3.org/2000/svg">
<path fill-rule="evenodd" clip-rule="evenodd" d="M2.33548 1.45085L2.32917 1.34933C2.32917 0.936725 2.63792 0.596237 3.03699 0.546295L3.13851 0.539989H11.1506L11.1994 0.541455L11.2698 0.548712L11.3745 0.571363L11.4696 0.605289L11.5501 0.645327L11.6513 0.713407L11.7228 0.777039L11.7643 0.821692L11.8261 0.903495L11.873 0.984139L11.9114 1.07285L11.9373 1.15859L11.9551 1.2607L11.9599 1.34933L11.9599 9.36137C11.9599 9.80835 11.5975 10.1707 11.1506 10.1707C10.7379 10.1707 10.3975 9.86195 10.3475 9.46289L10.3412 9.36137L10.3402 3.30426L1.42165 12.2228C1.10558 12.5389 0.593136 12.5389 0.277069 12.2228C-0.038997 11.9067 -0.0389974 11.3943 0.277069 11.0782L9.19676 2.15854L3.13851 2.15867C2.72591 2.15867 2.38542 1.84991 2.33548 1.45085L2.32917 1.34933L2.33548 1.45085Z" fill="#3B75F3"/>
</svg>
