<svg width="179" height="45" viewBox="0 0 179 45" fill="none" xmlns="http://www.w3.org/2000/svg">
<rect width="44" height="44" rx="22" fill="#3B75F3"/>
<path d="M14.0586 13.9785L21.38 9.95801V31.1471H14.0586V13.9785Z" fill="white"/>
<path d="M24.9502 24.7197H32.3216L28.6688 31.0709H21.3633L24.9502 24.7197Z" fill="white"/>
<path d="M28.7353 18.4019H21.364L25.0167 24.7531H32.3223L28.7353 18.4019Z" fill="white"/>
<path d="M55.7604 32V11.7457H63.87C65.3601 11.7457 66.6029 11.9666 67.5985 12.4083C68.594 12.8501 69.3424 13.4632 69.8435 14.2478C70.3445 15.0258 70.5951 15.9225 70.5951 16.9378C70.5951 17.729 70.4368 18.4246 70.1204 19.0246C69.8039 19.618 69.3687 20.1059 68.8149 20.4883C68.2677 20.8641 67.6413 21.1311 66.9359 21.2894V21.4871C67.7073 21.5201 68.4292 21.7377 69.1017 22.1399C69.7808 22.5421 70.3313 23.1058 70.7533 23.831C71.1753 24.5497 71.3863 25.4068 71.3863 26.4024C71.3863 27.4771 71.1192 28.4364 70.5852 29.2803C70.0577 30.1176 69.2764 30.7803 68.2413 31.2682C67.2062 31.7561 65.9304 32 64.414 32H55.7604ZM60.0427 28.499H63.5338C64.7271 28.499 65.5974 28.2715 66.1447 27.8166C66.6919 27.3551 66.9655 26.7419 66.9655 25.9771C66.9655 25.4167 66.8304 24.9222 66.56 24.4936C66.2897 24.0651 65.904 23.7288 65.4029 23.4849C64.9084 23.2409 64.3184 23.119 63.6327 23.119H60.0427V28.499ZM60.0427 20.2213H63.2173C63.8041 20.2213 64.3249 20.1191 64.7799 19.9147C65.2414 19.7037 65.604 19.407 65.8678 19.0246C66.1381 18.6422 66.2732 18.184 66.2732 17.6499C66.2732 16.9181 66.0128 16.328 65.4919 15.8796C64.9777 15.4313 64.2458 15.2071 63.2964 15.2071H60.0427V20.2213ZM74.0936 32V16.8093H78.3066V32H74.0936ZM76.21 14.8511C75.5837 14.8511 75.0463 14.6434 74.598 14.228C74.1562 13.8061 73.9354 13.3017 73.9354 12.7149C73.9354 12.1347 74.1562 11.6369 74.598 11.2215C75.0463 10.7996 75.5837 10.5886 76.21 10.5886C76.8364 10.5886 77.3704 10.7996 77.8122 11.2215C78.2605 11.6369 78.4847 12.1347 78.4847 12.7149C78.4847 13.3017 78.2605 13.8061 77.8122 14.228C77.3704 14.6434 76.8364 14.8511 76.21 14.8511ZM89.7615 16.8093V19.974H80.6134V16.8093H89.7615ZM82.6903 13.1698H86.9034V27.332C86.9034 27.721 86.9627 28.0243 87.0814 28.2419C87.2 28.4529 87.3649 28.6012 87.5759 28.6869C87.7934 28.7726 88.044 28.8155 88.3275 28.8155C88.5253 28.8155 88.7231 28.799 88.9209 28.766C89.1187 28.7265 89.2703 28.6968 89.3758 28.677L90.0384 31.8121C89.8274 31.878 89.5307 31.9538 89.1483 32.0396C88.7659 32.1319 88.3011 32.1879 87.7539 32.2077C86.7385 32.2472 85.8484 32.1121 85.0836 31.8022C84.3254 31.4923 83.7353 31.011 83.3134 30.3583C82.8914 29.7056 82.6837 28.8814 82.6903 27.8858V13.1698ZM99.2063 32.2967C97.67 32.2967 96.3415 31.9703 95.2207 31.3176C94.1064 30.6583 93.246 29.7418 92.6394 28.5682C92.0329 27.3881 91.7296 26.02 91.7296 24.464C91.7296 22.8948 92.0329 21.5234 92.6394 20.3498C93.246 19.1696 94.1064 18.2532 95.2207 17.6005C96.3415 16.9411 97.67 16.6115 99.2063 16.6115C100.742 16.6115 102.068 16.9411 103.182 17.6005C104.303 18.2532 105.167 19.1696 105.773 20.3498C106.38 21.5234 106.683 22.8948 106.683 24.464C106.683 26.02 106.38 27.3881 105.773 28.5682C105.167 29.7418 104.303 30.6583 103.182 31.3176C102.068 31.9703 100.742 32.2967 99.2063 32.2967ZM99.226 29.0331C99.9249 29.0331 100.508 28.8353 100.977 28.4397C101.445 28.0375 101.797 27.4903 102.035 26.798C102.279 26.1057 102.401 25.3178 102.401 24.4343C102.401 23.5508 102.279 22.7629 102.035 22.0706C101.797 21.3784 101.445 20.8311 100.977 20.4289C100.508 20.0268 99.9249 19.8257 99.226 19.8257C98.5206 19.8257 97.9272 20.0268 97.4459 20.4289C96.9712 20.8311 96.6118 21.3784 96.3679 22.0706C96.1305 22.7629 96.0119 23.5508 96.0119 24.4343C96.0119 25.3178 96.1305 26.1057 96.3679 26.798C96.6118 27.4903 96.9712 28.0375 97.4459 28.4397C97.9272 28.8353 98.5206 29.0331 99.226 29.0331ZM113.24 27.6287L113.25 22.575H113.863L118.729 16.8093H123.565L117.028 24.4442H116.029L113.24 27.6287ZM109.422 32V11.7457H113.635V32H109.422ZM118.917 32L114.446 25.3837L117.255 22.4069L123.852 32H118.917ZM128.094 32.2571C127.442 32.2571 126.881 32.0264 126.413 31.5648C125.952 31.0967 125.721 30.5363 125.721 29.8836C125.721 29.2375 125.952 28.6836 126.413 28.2221C126.881 27.7606 127.442 27.5298 128.094 27.5298C128.727 27.5298 129.281 27.7606 129.756 28.2221C130.231 28.6836 130.468 29.2375 130.468 29.8836C130.468 30.3187 130.356 30.7176 130.132 31.0802C129.914 31.4363 129.627 31.7231 129.271 31.9407C128.915 32.1516 128.523 32.2571 128.094 32.2571ZM137.744 27.6287L137.754 22.575H138.367L143.233 16.8093H148.069L141.532 24.4442H140.533L137.744 27.6287ZM133.927 32V11.7457H138.14V32H133.927ZM143.421 32L138.951 25.3837L141.76 22.4069L148.356 32H143.421ZM156.354 38.013C154.99 38.013 153.819 37.8251 152.844 37.4493C151.874 37.0801 151.103 36.5757 150.529 35.9361C149.956 35.2966 149.583 34.5779 149.412 33.7802L153.308 33.256C153.427 33.5593 153.615 33.8428 153.872 34.1065C154.129 34.3703 154.469 34.5812 154.891 34.7395C155.319 34.9043 155.84 34.9867 156.453 34.9867C157.37 34.9867 158.125 34.7625 158.718 34.3142C159.318 33.8725 159.618 33.1307 159.618 32.089V29.31H159.44C159.255 29.7319 158.979 30.1308 158.609 30.5066C158.24 30.8825 157.765 31.189 157.185 31.4264C156.605 31.6637 155.913 31.7824 155.108 31.7824C153.968 31.7824 152.929 31.5187 151.993 30.9912C151.063 30.4572 150.322 29.6429 149.768 28.5485C149.221 27.4474 148.947 26.0562 148.947 24.375C148.947 22.6541 149.227 21.2168 149.788 20.063C150.348 18.9092 151.093 18.0455 152.023 17.4719C152.959 16.8983 153.984 16.6115 155.098 16.6115C155.949 16.6115 156.661 16.7565 157.235 17.0466C157.808 17.3301 158.27 17.6862 158.619 18.1147C158.975 18.5367 159.249 18.9521 159.44 19.3608H159.598V16.8093H163.782V32.1483C163.782 33.4406 163.465 34.5219 162.832 35.3922C162.199 36.2625 161.322 36.9152 160.202 37.3504C159.087 37.7921 157.805 38.013 156.354 38.013ZM156.443 28.6177C157.123 28.6177 157.696 28.4496 158.164 28.1133C158.639 27.7705 159.002 27.2826 159.252 26.6496C159.509 26.0101 159.638 25.2453 159.638 24.3552C159.638 23.4651 159.513 22.6937 159.262 22.041C159.011 21.3817 158.649 20.8707 158.174 20.5081C157.699 20.1454 157.123 19.9641 156.443 19.9641C155.751 19.9641 155.168 20.152 154.693 20.5278C154.218 20.8971 153.859 21.4113 153.615 22.0706C153.371 22.73 153.249 23.4915 153.249 24.3552C153.249 25.2321 153.371 25.9903 153.615 26.6298C153.866 27.2628 154.225 27.754 154.693 28.1034C155.168 28.4463 155.751 28.6177 156.443 28.6177Z" fill="white"/>
</svg>
