<svg width="40" height="40" viewBox="0 0 40 40" fill="none" xmlns="http://www.w3.org/2000/svg">
<path d="M19.998 40C31.0437 40 39.998 31.0457 39.998 20C39.998 8.9543 31.0437 0 19.998 0C8.95235 0 -0.00195312 8.9543 -0.00195312 20C-0.00195312 31.0457 8.95235 40 19.998 40Z" fill="#F7931A"/>
<path fill-rule="evenodd" clip-rule="evenodd" d="M27.5418 14.8688C27.3419 12.2269 25.0838 11.2966 22.2152 10.9863L22.2896 7.32892L20.0633 7.28384L19.991 10.8449C19.4057 10.833 18.8073 10.8324 18.2127 10.8322L18.2859 7.24759L16.0609 7.20224L15.9857 10.8586C15.5035 10.8586 15.03 10.858 14.5684 10.8489L14.5683 10.8375L11.4978 10.774L11.45 13.1517C11.45 13.1517 13.0947 13.1538 13.0667 13.1835C13.9685 13.2022 14.2513 13.7316 14.3275 14.1851L14.2429 18.3517C14.3051 18.3533 14.3862 18.3575 14.4779 18.372L14.4024 18.3704L14.4022 18.3704C14.3506 18.3693 14.2971 18.3682 14.2427 18.3675L14.1233 24.2045C14.078 24.4875 13.9019 24.9365 13.2719 24.9248C13.2999 24.9506 11.6536 24.8915 11.6536 24.8915L11.1572 27.5412L14.0543 27.6C14.3779 27.607 14.6982 27.6169 15.0152 27.6268L15.0155 27.6268L15.0171 27.6269C15.2277 27.6334 15.4368 27.6399 15.6444 27.6455L15.5701 31.3446L17.7939 31.3902L17.8684 27.7302C18.4787 27.7553 19.0695 27.7721 19.6464 27.7833L19.5713 31.4264L21.7976 31.4715L21.8734 27.779C25.6206 27.6404 28.2593 26.7508 28.6562 23.2428C28.9764 20.418 27.6708 19.1281 25.5566 18.5746C26.8607 17.9437 27.6912 16.802 27.5418 14.8688ZM24.2665 22.7153C24.216 25.2514 20.2331 25.115 18.4107 25.0526C18.2468 25.047 18.1003 25.042 17.9758 25.0396L18.0761 20.1386C18.2278 20.1417 18.4121 20.1411 18.6209 20.1404L18.6209 20.1404C20.4897 20.1343 24.3194 20.1218 24.2665 22.7153ZM18.4866 17.9063C20.0069 17.9623 23.323 18.0844 23.3706 15.7789C23.4183 13.421 20.2268 13.4405 18.6681 13.4501C18.4928 13.4512 18.3381 13.4521 18.211 13.4496L18.1204 17.8946C18.2251 17.8967 18.3484 17.9012 18.4866 17.9063Z" fill="#131313"/>
</svg>
