<svg width="13" height="13" viewBox="0 0 13 13" fill="none" xmlns="http://www.w3.org/2000/svg">
<path fill-rule="evenodd" clip-rule="evenodd" d="M2.83548 1.45085L2.82917 1.34933C2.82917 0.936725 3.13792 0.596237 3.53699 0.546295L3.63851 0.539989H11.6506L11.6994 0.541455L11.7698 0.548712L11.8745 0.571363L11.9696 0.605289L12.0501 0.645327L12.1513 0.713407L12.2228 0.777039L12.2643 0.821692L12.3261 0.903495L12.373 0.984139L12.4114 1.07285L12.4373 1.15859L12.4551 1.2607L12.4599 1.34933L12.4599 9.36137C12.4599 9.80835 12.0975 10.1707 11.6506 10.1707C11.2379 10.1707 10.8975 9.86195 10.8475 9.46289L10.8412 9.36137L10.8402 3.30426L1.92165 12.2228C1.60558 12.5389 1.09314 12.5389 0.777069 12.2228C0.461003 11.9067 0.461003 11.3943 0.777069 11.0782L9.69676 2.15854L3.63851 2.15867C3.22591 2.15867 2.88542 1.84991 2.83548 1.45085L2.82917 1.34933L2.83548 1.45085Z" fill="white"/>
</svg>
