<svg width="8" height="16" viewBox="0 0 8 16" fill="none" xmlns="http://www.w3.org/2000/svg">
<path d="M5.24168 0.628227C5.09732 0.642663 4.76529 0.717731 4.56029 0.78125C3.62772 1.06709 2.92323 1.77446 2.61719 2.73013C2.45262 3.24694 2.43529 3.42595 2.42086 4.7714L2.40642 6.00713H1.28329H0.160156V7.33526V8.66338H1.28618H2.41219V12.027V15.3906H3.78363H5.15506V12.027V8.66338H6.28974H7.42154L7.58899 7.35547C7.68139 6.63944 7.75645 6.04178 7.75357 6.02734C7.75357 6.01579 7.16746 6.00713 6.45143 6.00713H5.14929L5.16084 4.97351C5.17238 3.99185 5.17527 3.9341 5.23879 3.74066C5.29076 3.57897 5.33696 3.50968 5.45533 3.3913C5.72673 3.1199 6.027 3.06216 7.21365 3.06216H7.84018V1.88128V0.700408L7.67561 0.683084C7.0895 0.619565 5.63434 0.584918 5.24168 0.628227Z" fill="#3B75F3"/>
</svg>
