<svg width="18" height="16" viewBox="0 0 18 16" fill="none" xmlns="http://www.w3.org/2000/svg">
<path d="M8.74437 4.584L8.78267 5.21549L8.1444 5.13816C5.82109 4.84175 3.79139 3.83652 2.06806 2.14826L1.22554 1.31058L1.00853 1.92918C0.548978 3.30814 0.842582 4.76442 1.79999 5.74387C2.3106 6.28515 2.19572 6.36247 1.3149 6.04028C1.00853 5.93718 0.740459 5.85986 0.714928 5.89852C0.62557 5.98873 0.93194 7.1615 1.17448 7.62544C1.50638 8.26982 2.18295 8.90131 2.92334 9.27504L3.54885 9.57146L2.80846 9.58434C2.09359 9.58434 2.06806 9.59723 2.14465 9.86787C2.39996 10.7056 3.40843 11.5948 4.53179 11.9814L5.32324 12.2521L4.63391 12.6645C3.61268 13.2573 2.41273 13.5924 1.21278 13.6181C0.638336 13.631 0.166016 13.6826 0.166016 13.7212C0.166016 13.8501 1.7234 14.5718 2.62974 14.8553C5.34877 15.693 8.57842 15.3322 11.0039 13.9017C12.7272 12.8835 14.4505 10.8602 15.2547 8.90131C15.6888 7.85742 16.1228 5.95007 16.1228 5.03506C16.1228 4.44224 16.1611 4.36491 16.8759 3.6561C17.2972 3.2437 17.6929 2.79264 17.7695 2.66376C17.8972 2.4189 17.8844 2.4189 17.2334 2.63799C16.1483 3.02461 15.9951 2.97306 16.5313 2.39312C16.927 1.98073 17.3993 1.23325 17.3993 1.01416C17.3993 0.975501 17.2078 1.03994 16.9908 1.15593C16.7611 1.2848 16.2504 1.47811 15.8675 1.5941L15.1781 1.81319L14.5526 1.3879C14.208 1.15593 13.7229 0.898176 13.4676 0.820851C12.8165 0.640426 11.8208 0.666201 11.2336 0.872401C9.63795 1.45234 8.62948 2.94729 8.74437 4.584Z" fill="#3B75F3"/>
</svg>
